<?xml version="1.0" encoding="utf-8"?>
<!-- Generator: Adobe Illustrator 24.0.1, SVG Export Plug-In . SVG Version: 6.00 Build 0)  -->
<svg version="1.1" id="图层_1" xmlns:serif="http://www.serif.com/"
	 xmlns="http://www.w3.org/2000/svg" xmlns:xlink="http://www.w3.org/1999/xlink" x="0px" y="0px" viewBox="0 0 1080 1080"
	 style="enable-background:new 0 0 1080 1080;" xml:space="preserve">
<style type="text/css">
	.st0{fill:none;}
	.st1{fill:#264DD9;}
	.st2{fill:#5C82FF;}
	.st3{fill:#FFFFFF;}
	.st4{fill:#1A2236;}
	.st5{fill:#1337B9;}
</style>
<g>
	<rect id="favicon" class="st0" width="1080" height="1080"/>
	<g>
		<g>
			<path class="st1" d="M312.4,475.5L312.4,475.5c0-16.2-13.1-29.4-29.4-29.4H44c-16.2,0-29.4,13.1-29.4,29.4l0,0
				c0,16.2,13.1,29.4,29.4,29.4h239.1C299.3,504.9,312.4,491.7,312.4,475.5z"/>
			<path class="st1" d="M118.3,387.5h12c16.2,0,29.4-13.1,29.4-29.4l0,0c0-16.2-13.1-29.4-29.4-29.4h-12
				c-16.2,0-29.4,13.1-29.4,29.4l0,0C88.9,374.4,102.1,387.5,118.3,387.5z"/>
			<path class="st1" d="M1040.2,520.6c-12.7-29.9-30.8-56.8-53.9-79.9s-50-41.2-79.9-53.9c-31-13.1-64-19.8-97.9-19.8
				c-3.8,0-7.5,0.1-11.3,0.3c-5.8-11.7-12.4-23-19.8-33.8c-17-25-37.8-47-61.8-65.4c-24.3-18.7-51.2-33.2-80-43.1
				c-29.8-10.3-61-15.6-92.8-15.6c-38,0-74.9,7.4-109.7,22c-33.6,14.1-63.8,34.3-89.8,60c-11.7,11.6-22.2,24-31.7,37.2h-73.5
				c-16.2,0-29.4,13.1-29.4,29.4l0,0c0,16.2,13.1,29.4,29.4,29.4h89.3c11.1,0,20.7-6.1,25.7-15.2h0.1c0.1-0.1,5.2-8,5.3-8
				c40.7-58,108-95.9,184.2-95.9c103.1,0,190,69.4,216.6,164c15.7-4.1,32.1-6.3,49-6.3c106.4,0,192.7,86.3,192.7,192.7
				c0,106.3-86.1,192.5-192.4,192.7H392c-93.4,0-169-75.7-169-169c0-16.4,5.7-35.9,7.4-47.9c0.1-0.8,0.4-4.8,0.4-4.8
				c0-16.2-13.1-29.4-29.4-29.4H97.1c-16.2,0-29.4,13.1-29.4,29.4l0,0c0,16.2,13.1,29.4,29.4,29.4h68.7c-0.8,7.7-1.2,15.5-1.2,23.3
				c0,11.4,0.8,22.7,2.5,33.8h-16.3c-16.2,0-29.4,13.1-29.4,29.4l0,0c0,16.2,13.1,29.4,29.4,29.4h33.4
				c11.4,25.6,27.2,48.7,47.1,68.6c20.9,20.9,45.2,37.3,72.4,48.8c28.1,11.9,57.9,17.9,88.7,17.9H809h0.1
				c33.9-0.1,66.7-6.8,97.7-19.9c29.9-12.7,56.7-30.8,79.8-53.9c23-23.1,41.1-49.9,53.8-79.9c13.1-31,19.7-63.9,19.7-97.8
				C1060,584.5,1053.3,551.6,1040.2,520.6z"/>
		</g>
		<g>
			<path class="st2" d="M987.1,562L987.1,562c-1.7-9.4-8.6-16.6-11.1-19.3c-4.4-4.6-9.7-8.4-15.8-11.2l-0.1-0.1
				c-7.1-3.3-15.5-11.5-32.3-27.7l-0.3-0.3c-22.1-21.4-31.1-30.5-34.1-40.9c-0.7-2.5-1.1-4.6-1.5-7.3c-0.7-4.3-1.6-9.6-4.2-18.4
				c-1.6-5.4-5.4-18.1-11.7-29.4c-12.8-23.1-33.2-35.3-40.9-39.9l-0.5-0.3c-13.3-7.9-22.8-10.2-30.4-11.9
				c-7.7-1.8-13.7-3.2-24.1-10.3c-3.1-2.1-5.5-4-7.8-5.8c-5.2-4.1-10.1-7.9-19.3-11.7c-15.7-6.5-30-7-37.7-7.3
				c-12.1-0.5-24.2,0.6-36.1,3l-0.3,0.1c-22.5,4.7-76.8,9.9-120.8-3.9c-13.8-4.3-23.6-9.5-33.1-14.5c-16.1-8.5-29.9-15.8-53.5-14.3
				c-15.9,1-30.1,5.8-40.9,13.9c-5.8,4.3-19.8,16.6-25.2,36.7c-1.1,4.2-1.5,7.5-2,10.9v0.2c-1.3,10.9-1,22.3,1,34
				c10.3,59.2,54.7,98.5,56.5,100.1c6.8,5.9,16.1,14.1,27.3,21.1l7.9,4.9l-8.6,3.6c-9.6,4-19,8.3-28.1,12.8
				c-28.1,13.9-54.9,30.5-79.9,49.4l-0.2,0.1c-25.2,19.7-52.9,35.5-82.3,46.9c-28.5,11.1-58.8,18.2-90,21.1l-6,11.7
				c-1.9,21.1-0.1,52.7,18.3,85.6c18.5,33,45.3,51.4,55.3,58.4c34.5,23.8,68.9,31.6,85.4,35.4c23.1,5.3,51.7,8.4,85,9.3
				c33.7,0.9,72.7-0.4,116.1-4c53.9-4.4,95.4-16.4,113.1-21.6c1.7-0.5,3.1-0.9,4.2-1.2l0,0c6.7-18.8,11.3-37.1,13.6-54.4
				c3.5-26.5,6-45.6,2.1-71.5c-1.2-7.7-2.6-14-3.9-19.6c-2.4-10.6-4.2-18.2-3.1-30.3c0.9-10.1,2.4-25.3,13-37.2
				c14.9-16.6,38.1-16.9,45.7-16.9c4.9-0.1,22.4,0.6,40.1,11c9.5,5.5,13.5,10.5,18.2,16.3c5.5,6.9,11.8,14.7,25.7,21.6
				c15.8,7.8,33.9,11,52.3,9.1c19.7-2.1,33.3-9.7,45.3-16.4c16.4-9.2,26.3-18.8,35.9-28.2C982.3,585.1,989.1,573.1,987.1,562z"/>
			<rect x="804" y="439.8" class="st3" width="15.9" height="18.3"/>
			<path class="st4" d="M832.9,473.4c-0.1-0.2-0.2-0.3-0.2-0.4c-0.1-0.1-0.1-0.3-0.2-0.4c-0.1-0.2-0.3-0.5-0.6-1.2v-0.2l0,0
				c-0.2-0.5-0.8-2.2-1-4.2c-0.1-2,0.6-5.6,1.1-7.9c0.1-0.6,0.2-1.1,0.3-1.6c0.4-2.3,1-6.8-0.2-11.7c-1.1-4.4-3.2-8.3-6-10.8
				c-0.9-0.8-3.5-3-7.5-4.3c0,0-0.2-0.1-0.5-0.2c-6.1-1.9-13.5-1.4-13.8-1.3c-8.8,0.7-15.7,3.5-19.1,4.8c-4.8,2-7.2,3-10.5,4.8
				c-0.3,0.2-0.7,0.4-1,0.6c-2.5,1.5-5.7,3.3-9.2,3.8c-2.3,0.3-3,0.4-3,0.4c-1,0-1.8,0-2.4,0c-1.2-0.1-2.1-0.1-3.1,0.5
				c-1.3,0.8-1.7,1.7-1.9,2.3c0,0.2-0.1,0.7,0.1,1.4c0.5,1.6,2.3,2.6,3.8,3c0.4,0.1,0.7,0.1,1.1,0.1c0.5,0,1.1,0.1,2.1,0.3h0.1
				c0.2,0,0.4,0.1,0.7,0.2c0.8,0.2,2,0.5,3.5,1.4c0.9,0.5,2,1.2,2.8,2.1c1,0.9,1.5,1.6,2.2,2.5c0.2,0.3,0.4,0.6,0.7,0.9
				c1.1,1.5,2.4,2.9,3.7,4.3c2.2,2.3,5.9,6.2,11.9,9.3c2,1.1,7.3,3.8,14.6,4.4c4.3,0.3,9.1,0.7,12.8-1c1.8-0.9,3.2-1,4.1-0.9
				c1.7,0.1,3.2,0.9,3.2,0.9c0.4,0.2,0.8,0.5,2.8,2.3c2.8,2.6,3.3,3.1,4.3,3.4c0.9,0.3,1.6,0.5,2.3,0.5c0.7,0,1.3-0.2,1.8-0.6
				c1-0.8,1.1-2.1,1.1-3.2C833.8,477.7,833.9,475.9,832.9,473.4z M815.6,454.4c-2.3,1.3-5.5,0.2-7.1-2.6c-1.6-2.8-1-6.1,1.3-7.4
				s5.5-0.2,7.1,2.6C818.4,449.8,817.9,453.1,815.6,454.4z"/>
			<path class="st5" d="M613.5,473c6.7,3.6,7.2,16.4,7.7,27.9c0.6,13.6-2.3,23.9-2.9,26c-1.7,5.8-8.2,26-44.3,56.3
				c-8.3,6.9-5.9,4.1-36.6,26.5c-38.3,27.9-44.4,34-48.1,38c-12.7,13.6-23.5,25.3-28.4,43.3c-7,25.8,6.1,34.8-0.5,66.9
				c-2.1,10.4-5.1,24.9-16.4,37.5c-15.9,17.8-38.4,20.7-52.9,22.6c-42.2,5.5-76.9-10.9-93.3-20.2c0,0-53.7-28.9-87.6-108.7
				c-7.1-16.8-4.5-26.6-2.9-30.8c0.8-2.2,2-5.3,4.8-7.7c10-8.7,30.9,0.4,36.6,2.4c13.2,4.7,36.8,4.5,142.4-66.4
				c80.1-53.8,84.1-65.4,116-72.7c19.5-4.4,38.7-4.8,64-19.2C592,482.7,604.7,468.2,613.5,473z"/>
			<g>
				<path class="st3" d="M688.5,586.5c-2.6-2.2-6.5-1.6-9.6-1c-9.8,2.1-20.8,4.4-31.8,14.4c-11.4,10.5-15.6,22.6-17.8,29.4
					c-8.4,25.6-2.3,50.1,1,63c1.7,6.9,2.5,7.7,3.8,14.4c3.8,18.8,1,28.3,1.9,39.9c1.6,20.8,14.5,43.8,23.6,43.3
					c11.3-0.7,20.6-38.6,22.1-68.3c2.4-46.9-14.8-63.4-1.9-87.1c6.6-12.2,8-20,10.6-35.6C691,595.6,691.9,589.5,688.5,586.5z"/>
				<path class="st3" d="M966.7,554.3c-1.4-8.2-6.5-13.2-18.3-24.1c-17.6-16.3-29.4-26.7-36.1-32.7c-22.2-20-33.2-30.1-38-39.5
					c-4.4-8.7-7-18.8-13-19.2c-5.3-0.4-10,7.2-10.6,8.2c-3.8,6.2-3.3,12.7-2.9,16.4c0.9,9.2,6,21.5,14,25.5c1.1,0.5,3.6,1.6,5.3,4.3
					c1.8,2.9,1.5,6.1,1.4,7.2c-0.5,5.2-3.9,8.7-6.3,11.1c-3.5,3.5-6,4.4-12.5,8.2c-3.1,1.8-7.6,4.5-13,8.2
					c-5.6,3.7-13.4,9.9-19.2,19.7c-2.5,4.2-5.8,9.9-6.3,17.8c-0.1,1-0.2,5,1,10.1c1.5,6.2,4.1,10.4,5.8,13
					c8.6,13.4,12.9,20.1,16.4,23.6c16.5,16.7,51.1,14.4,72.7,7.7c3.1-1,30.5-9.9,49.1-36.1C961.8,575.6,968.6,565.7,966.7,554.3z"/>
			</g>
			<path class="st4" d="M991.8,561.1c-2-10.8-9.5-18.7-12.4-21.7c-4.8-5.1-10.7-9.2-17.3-12.3L962,527c-6.4-3-15.1-11.4-30.9-26.8
				l-0.3-0.3c-21.4-20.8-30.2-29.6-32.8-38.8c-0.6-2.3-1-4.2-1.4-6.8c-0.7-4.4-1.6-9.9-4.4-19c-1.7-5.6-5.6-18.6-12.1-30.4
				c-13.4-24.2-34.7-36.9-42.7-41.7l-0.5-0.3c-13.9-8.3-23.8-10.6-31.8-12.5c-7.5-1.7-12.8-3-22.5-9.6c-3-2-5.3-3.9-7.6-5.6
				c-5.2-4.1-10.6-8.3-20.4-12.4c-16.5-6.8-31.4-7.4-39.3-7.7c-12.5-0.5-25,0.6-37.3,3.1l-0.3,0.1c-22.1,4.6-75.3,9.7-118.4-3.8
				c-13.4-4.2-23-9.3-32.3-14.2c-16-8.4-31.1-16.4-56.1-14.9c-16.9,1-31.9,6.2-43.5,14.8c-6.2,4.6-21.2,17.7-27,39.3
				c-1.2,4.5-1.7,8.1-2.1,11.6v0.2c-1.4,11.4-1,23.3,1.1,35.4c10.6,60.8,56.2,101.2,58.1,102.9c7,6.1,16.4,14.3,27.9,21.6
				c-9.6,4-19.1,8.3-28.4,12.9c-28.3,14-55.5,30.8-80.6,49.9l-0.2,0.1c-24.9,19.4-52.2,35-81.1,46.3c-29,11.3-59.8,18.4-91.4,21
				v35.5c36-2.7,71.2-10.6,104.3-23.5c32.1-12.6,62.4-29.8,89.9-51.3c23.4-17.7,48.6-33.3,74.9-46.3c25.5-12.6,52.3-22.9,79.7-30.7
				l-0.1-0.2c10.4-2.4,18.9-6.7,27.2-10.9c22.2-11.1,35.5-24.1,47.2-35.5c3-3,2.6-2.6,5.7-5.5c3.9-3.7,12.2-11.4,22.6-20
				c15.8-13,29.5-22.3,33.2-24.8c13.5-9,31.6-19.9,54.5-30.4c2.4-1.9,3.5-5,2.8-7.8c-0.8-3.4-3.8-4.8-4.2-5
				c-13.6-0.2-24.5,1.4-31.8,2.8c0,0-44,8.8-87.7,47.1c-5.2,4.6-11.2,10-11.2,10c-0.8,0.8-1.5,1.4-2.1,1.9l-0.3,0.3
				c-2.1,2-4.2,4-6.2,6c-10.8,10.6-21.1,20.6-38.3,29.2c-9.1,4.6-15.7,7.9-23.9,8.9c-23.4,2.9-44.9-15.9-59.1-28.3
				c-0.4-0.3-38.1-33.8-46.6-82.4c-1.5-8.8-1.8-17-0.8-25v-0.2c0.4-2.9,0.6-4.6,1.1-6.7c3.1-11.5,12.2-18.8,14-20.2
				c6-4.5,14.5-7.2,24.4-7.8c15.1-0.9,23.5,3.5,37.4,10.9c9.7,5.1,21.8,11.5,38.2,16.6c50,15.7,109.1,10.3,136.2,4.7l0.3-0.1
				c9.4-2,19.1-2.8,28.7-2.4c6.6,0.2,16.5,0.6,27.1,5c5.3,2.2,7.7,4.1,12.1,7.5c2.6,2,5.5,4.3,9.5,7c15.1,10.3,25.4,12.7,34.4,14.8
				c7,1.6,12.5,2.9,21.7,8.4l0.6,0.3c6.8,4.1,21,12.5,29.8,28.4c4.7,8.4,7.8,18.9,9.1,23.4c2.1,6.9,2.7,10.8,3.3,14.6
				c0.5,3.1,1.1,6.4,2.2,10.6c5.3,18.8,18.4,31.5,42.2,54.6l0.3,0.3c9.8,9.5,17,16.5,23.4,21.9c-3.1,4.7-4.4,9.8-5.1,12.5
				c-1,3.7-2.7,11.1,0,19.7c0.5,1.6,2.4,7.5,6.2,12.1c-5.2,4.5-10.9,8.7-18.3,12.9c-10.8,6.1-20,11.3-33.5,12.7
				c-12.5,1.3-25.1-0.8-35.6-6c-7.9-4-11-7.7-15.6-13.4c-5.4-6.7-12.2-15.1-26.5-23.5c-23.8-13.9-46.9-15.2-55.8-15.2
				c-4.3,0-8.5,0.3-12.5,0.7c-10.8-0.2-35.2-2.2-58.8-19.1c-17.4-12.4-26.8-27.4-31.1-36.1c-1.4-2.8-3.7-4-6.4-3.5
				c-5,1.4-5.7,6.4-5.7,9.9c0,10.4,2.5,32.7,17.7,53.8c1.7,2.4,10.5,14.4,26.2,24.2c-15.2,18.8-17.3,40.2-18.4,51.9
				c-1.6,17,1,28.2,3.7,40c1.2,5.3,2.5,10.8,3.5,17.4c3.3,21.6,1.2,37.1-2.2,62.9c-0.3,2.6-0.7,5.1-1.2,7.7
				c-5.4-13.4-11.1-24.4-15.9-33c-9.2-16.3-19.9-34.8-40.3-53c-27.9-25-57.7-35.2-75-39.6c-6.4-1.4-9.7,1.6-11.3,5
				c-2.4,4.8,0,11.3,9.9,16.3c11.5,5.5,28.1,14.8,44.6,30.4c20.2,19.1,30.3,38.1,40.3,57.3c8.7,16.7,19.4,40.8,27.3,71.8h42
				c6.7-18.4,12.1-38.1,14.8-58.1c3.6-26.9,6.1-46.3,2.1-72.9c-1.2-7.9-2.7-14.3-4-20c-2.4-10.5-4-17.5-3-28.7
				c0.9-10,2.2-23.7,11.8-34.4c13.5-15,35.1-15.3,42.2-15.3c4.6,0,20.9,0.6,37.6,10.3c8.7,5.1,12.3,9.6,16.9,15.2
				c5.6,6.9,12.5,15.5,27.3,22.9c16.6,8.3,35.6,11.6,55,9.5c20.7-2.2,34.8-10.1,47.2-17c16.9-9.5,27.1-19.4,36.9-28.9
				C987,587.3,994.2,574.1,991.8,561.1z"/>
		</g>
		<path class="st1" d="M231.3,803.2c20.9,20.9,45.2,37.3,72.4,48.8c28.1,11.9,57.9,17.9,88.7,17.9h328v-58.7h-328
			c-93.4,0-169-75.7-169-169c0-5.5,0.6-11.3,1.6-17.1h-59.6c-0.4,5.7-0.6,11.4-0.6,17.1c0,11.4,0.8,22.7,2.5,33.8h-10.7v58.7h27.8
			C195.6,760.2,211.4,783.3,231.3,803.2z"/>
	</g>
</g>
</svg>
