<?xml version="1.0" encoding="utf-8"?>
<!-- Generator: Adobe Illustrator 24.0.1, SVG Export Plug-In . SVG Version: 6.00 Build 0)  -->
<svg version="1.1" id="图层_1" xmlns:serif="http://www.serif.com/"
	 xmlns="http://www.w3.org/2000/svg" xmlns:xlink="http://www.w3.org/1999/xlink" x="0px" y="0px" viewBox="0 0 1080 1080"
	 style="enable-background:new 0 0 1080 1080;" xml:space="preserve">
<style type="text/css">
	.st0{fill:none;}
	.st1{fill:#264DD9;}
	.st2{fill:#5C82FF;}
	.st3{fill:#FFFFFF;}
	.st4{fill:#1A2236;}
	.st5{fill:#1337B9;}
</style>
<rect id="favicon" class="st0" width="1080" height="1080"/>
<g>
	<g>
		<path class="st1" d="M316,475.9L316,475.9c0-16.2-13.2-29.4-29.4-29.4H47.2c-16.2,0-29.4,13.2-29.4,29.4l0,0
			c0,16.2,13.2,29.4,29.4,29.4h239.4C302.8,505.3,316,492.1,316,475.9z"/>
		<path class="st1" d="M121.6,387.7h12c16.2,0,29.4-13.2,29.4-29.4l0,0c0-16.2-13.2-29.4-29.4-29.4h-12c-16.2,0-29.4,13.2-29.4,29.4
			l0,0C92.2,374.6,105.3,387.7,121.6,387.7z"/>
		<path class="st1" d="M1044.7,520.9c-12.7-30-30.8-56.9-53.9-80s-50-41.2-80-53.9c-31.1-13.1-64-19.8-98-19.8
			c-3.8,0-7.5,0.1-11.3,0.3c-5.8-11.7-12.4-23-19.8-33.9c-17-25-37.8-47.1-61.8-65.5c-24.3-18.7-51.2-33.2-80.1-43.2
			c-29.8-10.3-61.1-15.6-92.9-15.6c-38,0-75,7.4-109.8,22c-33.6,14.1-63.9,34.3-89.9,60c-11.7,11.6-22.3,24-31.7,37.2h-73.6
			c-16.2,0-29.4,13.2-29.4,29.4l0,0c0,16.2,13.2,29.4,29.4,29.4h89.4c11.1,0,20.8-6.2,25.8-15.2h0.1c0.1-0.1,5.3-8,5.3-8.1
			c40.7-58.1,108.2-96,184.5-96c103.2,0,190.2,69.5,216.8,164.2c15.7-4.1,32.1-6.3,49.1-6.3c106.6,0,193,86.4,193,193
			c0,106.5-86.2,192.8-192.6,193H396.2c-93.5,0-169.2-75.8-169.2-169.2c0-16.5,5.7-36,7.4-48c0.1-0.8,0.4-4.8,0.4-4.8
			c0-16.2-13.2-29.4-29.4-29.4H100.3c-16.2,0-29.4,13.2-29.4,29.4l0,0c0,16.2,13.2,29.4,29.4,29.4h68.8c-0.8,7.7-1.2,15.5-1.2,23.4
			c0,11.4,0.8,22.7,2.5,33.8h-16.3c-16.2,0-29.4,13.2-29.4,29.4l0,0c0,16.2,13.2,29.4,29.4,29.4h33.4c11.4,25.6,27.2,48.7,47.2,68.7
			c20.9,20.9,45.3,37.4,72.5,48.8c28.1,11.9,58,17.9,88.8,17.9h417.1h0.1c33.9-0.1,66.8-6.8,97.8-19.9
			c29.9-12.7,56.8-30.9,79.9-53.9c23.1-23.1,41.2-50,53.8-79.9c13.1-31,19.8-64,19.8-97.9C1064.5,585,1057.8,552,1044.7,520.9z"/>
	</g>
	<g>
		<path class="st2" d="M991.5,562.4L991.5,562.4c-1.7-9.4-8.6-16.6-11.1-19.3c-4.4-4.7-9.8-8.4-15.8-11.2l-0.1-0.1
			c-7.1-3.3-15.5-11.5-32.3-27.7l-0.3-0.3c-22.1-21.4-31.2-30.6-34.1-41c-0.7-2.5-1.1-4.6-1.5-7.3c-0.7-4.3-1.6-9.6-4.2-18.4
			c-1.6-5.4-5.4-18.2-11.7-29.4c-12.8-23.1-33.3-35.3-41-39.9l-0.5-0.3c-13.3-7.9-22.8-10.2-30.4-11.9c-7.7-1.8-13.7-3.2-24.1-10.3
			c-3.1-2.1-5.5-4-7.8-5.8c-5.2-4.1-10.1-7.9-19.3-11.7c-15.7-6.5-30-7.1-37.7-7.3c-12.1-0.5-24.3,0.6-36.1,3l-0.3,0.1
			c-22.6,4.7-76.9,9.9-121-3.9c-13.8-4.3-23.7-9.5-33.2-14.5c-16.1-8.5-30-15.8-53.6-14.4c-16,1-30.1,5.8-40.9,13.9
			c-5.8,4.3-19.8,16.6-25.3,36.7c-1.1,4.2-1.5,7.5-2,11v0.2c-1.3,10.9-1,22.4,1,34c10.3,59.2,54.7,98.6,56.6,100.3
			c6.8,6,16.2,14.1,27.4,21.1l7.9,4.9l-8.6,3.6c-9.6,4-19,8.3-28.1,12.8c-28.1,13.9-55,30.5-80,49.4l-0.2,0.1
			c-25.2,19.7-53,35.5-82.4,47C272.3,637,242,644,210.7,646.9l-6,11.7c-1.9,21.1-0.1,52.8,18.4,85.7c18.5,33,45.3,51.5,55.4,58.5
			c34.6,23.8,69,31.7,85.5,35.4c23.1,5.3,51.8,8.4,85.1,9.3c33.7,0.9,72.8-0.4,116.2-4c54-4.4,95.5-16.5,113.3-21.6
			c1.7-0.5,3.1-0.9,4.2-1.2l0,0c6.7-18.9,11.3-37.2,13.6-54.5c3.5-26.5,6.1-45.7,2.1-71.6c-1.2-7.7-2.6-14-3.9-19.6
			c-2.4-10.6-4.2-18.2-3.1-30.3c1-10.1,2.4-25.3,13.1-37.2c14.9-16.6,38.1-16.9,45.8-16.9c4.9-0.1,22.4,0.6,40.1,11
			c9.5,5.5,13.5,10.6,18.2,16.3c5.6,6.9,11.8,14.7,25.8,21.6c15.8,7.9,33.9,11,52.4,9.1c19.7-2.1,33.3-9.7,45.3-16.5
			c16.4-9.2,26.3-18.9,35.9-28.2C986.7,585.6,993.5,573.6,991.5,562.4z"/>
		<rect x="808.2" y="440.1" class="st3" width="15.9" height="18.3"/>
		<path class="st4" d="M837.1,473.7c-0.1-0.2-0.2-0.3-0.2-0.4c-0.1-0.1-0.1-0.3-0.2-0.4c-0.1-0.2-0.3-0.5-0.6-1.2v-0.2l0,0
			c-0.2-0.5-0.8-2.2-1-4.2c-0.1-2,0.6-5.6,1.1-8c0.1-0.6,0.2-1.1,0.3-1.6c0.4-2.3,1-6.8-0.2-11.7c-1.1-4.4-3.2-8.3-6-10.8
			c-0.9-0.8-3.5-3-7.5-4.3c0,0-0.2-0.1-0.5-0.2c-6.1-1.9-13.5-1.4-13.8-1.3c-8.8,0.7-15.7,3.5-19.1,4.8c-4.8,2-7.3,3-10.5,4.8
			c-0.3,0.2-0.7,0.4-1,0.6c-2.5,1.5-5.7,3.3-9.2,3.8c-2.3,0.3-3,0.4-3,0.4c-1,0-1.8,0-2.4,0c-1.2-0.1-2.1-0.1-3.1,0.5
			c-1.3,0.8-1.7,1.7-1.9,2.3c0,0.2-0.1,0.7,0.1,1.4c0.5,1.6,2.3,2.6,3.8,3c0.4,0.1,0.7,0.1,1.1,0.1c0.5,0,1.1,0.1,2.1,0.3h0.1
			c0.2,0,0.4,0.1,0.7,0.2c0.8,0.2,2,0.5,3.6,1.4c1,0.5,2,1.2,2.8,2.1c1,0.9,1.5,1.6,2.2,2.5c0.2,0.3,0.4,0.6,0.7,0.9
			c1.1,1.5,2.4,2.9,3.7,4.3c2.2,2.3,5.9,6.2,11.9,9.3c2,1.1,7.3,3.8,14.6,4.4c4.3,0.3,9.1,0.7,12.8-1c1.8-0.9,3.2-1,4.1-0.9
			c1.7,0.1,3.2,0.9,3.2,0.9c0.4,0.2,0.8,0.5,2.8,2.3c2.8,2.6,3.3,3.1,4.3,3.5c0.9,0.3,1.6,0.5,2.3,0.5c0.7,0,1.3-0.2,1.8-0.6
			c1-0.8,1.1-2.1,1.1-3.2C838,478.1,838.1,476.2,837.1,473.7z M819.7,454.7c-2.3,1.3-5.5,0.2-7.1-2.6c-1.6-2.8-1-6.1,1.3-7.4
			s5.5-0.2,7.1,2.6C822.6,450.1,822,453.4,819.7,454.7z"/>
		<path class="st5" d="M617.4,473.3c6.7,3.6,7.2,16.4,7.7,27.9c0.6,13.6-2.3,23.9-2.9,26c-1.7,5.8-8.2,26-44.3,56.4
			c-8.3,7-5.9,4.1-36.6,26.5c-38.4,27.9-44.4,34-48.2,38.1c-12.7,13.7-23.5,25.3-28.4,43.4c-7,25.8,6.1,34.8-0.5,67
			c-2.1,10.4-5.1,24.9-16.4,37.6c-15.9,17.8-38.4,20.7-53,22.6c-42.2,5.5-77-10.9-93.5-20.2c0,0-53.7-29-87.7-108.9
			c-7.1-16.8-4.5-26.7-2.9-30.8c0.8-2.2,2-5.3,4.8-7.7c10-8.7,31,0.4,36.6,2.4c13.2,4.7,36.9,4.5,142.6-66.5
			c80.2-53.8,84.2-65.5,116.1-72.7c19.5-4.4,38.7-4.8,64.1-19.3C595.9,483,608.6,468.5,617.4,473.3z"/>
		<g>
			<path class="st3" d="M692.5,587c-2.6-2.2-6.5-1.6-9.6-1c-9.8,2.1-20.8,4.4-31.8,14.5c-11.4,10.5-15.6,22.6-17.8,29.4
				c-8.4,25.6-2.3,50.2,1,63.1c1.7,6.9,2.5,7.7,3.9,14.5c3.8,18.8,1,28.3,1.9,40c1.6,20.8,14.6,43.9,23.6,43.4
				c11.3-0.7,20.6-38.6,22.2-68.4c2.4-47-14.9-63.5-1.9-87.2c6.6-12.2,8-20,10.6-35.7C695,596.1,695.9,589.9,692.5,587z"/>
			<path class="st3" d="M971,554.7c-1.4-8.2-6.5-13.2-18.3-24.1c-17.6-16.3-29.5-26.7-36.1-32.8c-22.2-20.1-33.3-30.1-38.1-39.5
				c-4.4-8.8-7-18.9-13-19.3c-5.3-0.4-10,7.2-10.6,8.2c-3.8,6.2-3.3,12.7-2.9,16.4c0.9,9.2,6,21.6,14,25.5c1.1,0.5,3.6,1.6,5.3,4.3
				c1.8,2.9,1.6,6.1,1.4,7.2c-0.5,5.2-3.9,8.8-6.3,11.1c-3.5,3.5-6,4.4-12.5,8.2c-3.1,1.8-7.6,4.5-13,8.2
				c-5.6,3.7-13.4,9.9-19.3,19.8c-2.5,4.2-5.8,9.9-6.3,17.8c-0.1,1-0.2,5.1,1,10.1c1.5,6.2,4.1,10.4,5.8,13
				c8.6,13.4,13,20.1,16.4,23.6c16.5,16.8,51.2,14.4,72.7,7.7c3.1-1,30.5-9.9,49.1-36.1C966.1,576,972.9,566.2,971,554.7z"/>
		</g>
		<path class="st4" d="M996.2,561.6c-2-10.8-9.5-18.7-12.4-21.7c-4.8-5.1-10.7-9.2-17.3-12.3l-0.1-0.1c-6.4-3-15.1-11.4-31-26.8
			l-0.3-0.3c-21.4-20.8-30.2-29.6-32.8-38.8c-0.6-2.3-1-4.2-1.4-6.8c-0.7-4.4-1.6-9.9-4.4-19c-1.7-5.6-5.6-18.6-12.1-30.4
			c-13.4-24.3-34.7-37-42.7-41.7l-0.5-0.3c-14-8.3-23.9-10.6-31.8-12.5c-7.5-1.7-12.9-3-22.5-9.6c-3-2-5.3-3.9-7.6-5.6
			c-5.2-4.1-10.6-8.3-20.4-12.4c-16.5-6.8-31.4-7.4-39.4-7.7c-12.5-0.5-25.1,0.6-37.3,3.1l-0.3,0.1c-22.1,4.6-75.4,9.7-118.6-3.8
			c-13.4-4.2-23-9.3-32.4-14.2c-16-8.5-31.2-16.4-56.1-14.9c-16.9,1-32,6.2-43.5,14.8c-6.2,4.6-21.2,17.7-27,39.3
			c-1.2,4.5-1.7,8.1-2.1,11.6v0.2c-1.4,11.4-1,23.3,1.1,35.5c10.6,60.9,56.3,101.4,58.2,103.1c7,6.1,16.4,14.4,28,21.6
			c-9.6,4-19.1,8.3-28.4,12.9c-28.4,14-55.5,30.8-80.7,49.9l-0.2,0.1c-24.9,19.4-52.2,35-81.2,46.3c-29.1,11.4-59.9,18.4-91.5,21
			v35.5c36-2.7,71.2-10.6,104.4-23.5c32.2-12.6,62.5-29.8,90-51.3c23.4-17.7,48.6-33.3,74.9-46.3c25.5-12.6,52.4-23,79.8-30.7
			l-0.1-0.2c10.4-2.4,18.9-6.7,27.3-10.9c22.2-11.1,35.5-24.1,47.3-35.6c3-3,2.6-2.6,5.7-5.5c3.9-3.7,12.2-11.4,22.7-20.1
			c15.9-13.1,29.6-22.3,33.3-24.8c13.5-9,31.7-19.9,54.5-30.5c2.4-1.9,3.5-5,2.8-7.8c-0.8-3.4-3.9-4.8-4.2-5
			c-13.6-0.2-24.6,1.4-31.9,2.8c0,0-44.1,8.8-87.8,47.1c-5.2,4.6-11.2,10-11.2,10c-0.8,0.8-1.5,1.4-2.1,1.9l-0.3,0.3
			c-2.1,2-4.2,4-6.2,6c-10.9,10.6-21.1,20.6-38.4,29.2c-9.1,4.6-15.7,7.9-24,8.9c-23.4,2.9-44.9-15.9-59.1-28.3
			c-0.4-0.3-38.1-33.8-46.6-82.5c-1.5-8.8-1.8-17-0.8-25v-0.2c0.4-2.9,0.6-4.6,1.1-6.7c3.1-11.5,12.3-18.8,14.1-20.2
			c6-4.5,14.5-7.2,24.5-7.8c15.1-0.9,23.5,3.5,37.5,10.9c9.7,5.1,21.8,11.5,38.3,16.7c50,15.7,109.3,10.3,136.4,4.7l0.3-0.1
			c9.4-2,19.1-2.8,28.7-2.4c6.6,0.2,16.5,0.6,27.2,5c5.3,2.2,7.7,4.1,12.1,7.5c2.6,2,5.5,4.3,9.5,7c15.1,10.3,25.4,12.7,34.4,14.8
			c7,1.6,12.5,2.9,21.7,8.4l0.6,0.3c6.8,4.1,21.1,12.5,29.8,28.4c4.7,8.4,7.8,18.9,9.2,23.4c2.1,7,2.7,10.9,3.4,14.6
			c0.5,3.1,1.1,6.4,2.2,10.6c5.3,18.8,18.4,31.5,42.2,54.7l0.3,0.3c9.8,9.5,17.1,16.6,23.4,22c-3.1,4.7-4.4,9.8-5.1,12.5
			c-1,3.8-2.7,11.1,0,19.8c0.5,1.6,2.4,7.5,6.2,12.1c-5.2,4.5-10.9,8.7-18.3,12.9c-10.8,6.1-20.1,11.3-33.5,12.7
			c-12.5,1.3-25.2-0.8-35.6-6c-7.9-4-11-7.7-15.6-13.4c-5.5-6.8-12.2-15.2-26.5-23.5c-23.8-14-47-15.2-55.9-15.2
			c-4.3,0-8.5,0.3-12.5,0.7c-10.8-0.2-35.2-2.2-58.9-19.1c-17.4-12.5-26.8-27.5-31.2-36.1c-1.4-2.8-3.7-4.1-6.4-3.5
			c-5,1.4-5.7,6.4-5.7,9.9c0,10.4,2.5,32.7,17.7,53.8c1.7,2.4,10.6,14.4,26.3,24.2c-15.2,18.8-17.3,40.2-18.4,52
			c-1.6,17,1,28.2,3.7,40.1c1.2,5.3,2.5,10.8,3.5,17.4c3.3,21.6,1.2,37.2-2.2,63c-0.3,2.6-0.7,5.1-1.2,7.7
			c-5.4-13.4-11.1-24.4-16-33c-9.2-16.3-20-34.8-40.4-53.1c-27.9-25.1-57.8-35.2-75.1-39.7c-6.4-1.4-9.7,1.6-11.3,5
			c-2.4,4.8,0,11.3,9.9,16.3c11.5,5.5,28.1,14.9,44.6,30.5c20.3,19.1,30.4,38.2,40.4,57.4c8.7,16.7,19.4,40.8,27.3,71.9h42
			c6.8-18.4,12.1-38.1,14.8-58.2c3.6-26.9,6.1-46.4,2.1-73c-1.2-7.9-2.7-14.3-4-20c-2.4-10.5-4-17.5-3-28.8
			c0.9-10,2.2-23.7,11.9-34.5c13.5-15.1,35.1-15.3,42.2-15.3c4.6,0,21,0.6,37.6,10.3c8.7,5.1,12.3,9.6,16.9,15.2
			c5.6,6.9,12.5,15.5,27.4,22.9c16.6,8.3,35.6,11.6,55,9.5c20.7-2.2,34.8-10.1,47.2-17.1c16.9-9.5,27.1-19.4,36.9-28.9
			C991.4,587.7,998.6,574.5,996.2,561.6z"/>
	</g>
	<path class="st1" d="M234.7,803.9c20.9,20.9,45.3,37.4,72.5,48.8c28.1,11.9,58,17.9,88.8,17.9h328.4v-58.8H396
		c-93.5,0-169.2-75.8-169.2-169.2c0-5.5,0.6-11.3,1.6-17.1h-59.7c-0.4,5.7-0.6,11.4-0.6,17.1c0,11.4,0.8,22.7,2.5,33.8h-10.7v58.8
		h27.9C198.9,760.9,214.8,784,234.7,803.9z"/>
</g>
</svg>
